<svg xmlns="http://www.w3.org/2000/svg" viewBox="0 0 900 300" width="1200" height="400">
  <g id="bg-layer">
    <rect fill="#009688" x="0" y="0" width="900" height="300"/>
  </g>
  <g id="fg-layer" transform="translate(450,150) rotate(-30)">
    <g id="axis"
       fill="none"
       stroke="#FFF"
       stroke-width="2"
       stroke-dasharray="8"
       opacity="0.3">
      <path d="M-1000,0 h2000" />
      <path d="M0,-1000 v2000" />
    </g>
    <g id="strokes"
       fill="none"
       stroke="#FFF"
       stroke-width="1.2"
       stroke-dasharray="1.4 2.6"
       transform="scale(1.3)">
      <path d="M-40,-130 H40 M40,-70 C40,-20 4,-25 4,0 S 40,20, 40,70 M40,130 H-40 M-40,70 C-40,20 -4,25 -4,0 S -40,-20, -40,-70 " />
      <path d="M-50,-130 v-15 M50,-130 v-15" />
      <path d="M-50,130 v15 M50,130 v15" />
      <path d="M-45,-130 V130" />
      <path d="M45,-130 V130" />
    </g>
  </g>
</svg>
