<svg xmlns="http://www.w3.org/2000/svg" width="150" height="150" viewBox="0 0 150 150">
  <style type="text/css">
    #gear32 { animation: rotate linear 180s infinite; }
    @keyframes rotate {
      from { transform: rotate(0deg); }
      to { transform: rotate(180deg); }
    }
  </style>
  <g transform="translate(75,75)">
    <g id="gear32" stroke="black" stroke-width="1.8" fill="none">
      <path d="M62.89636,-4.03035 L63.04346,-4.03978 L67.14607,-3.29867 L71.41168,-1.56096 L71.41168,1.56096 L67.14607,3.29867 L63.04346,4.03978 L62.89636,4.03035 L62.47410,8.31756 L62.62022,8.33701 L66.49942,9.86426 L70.34405,12.40076 L69.73500,15.46269 L65.21234,16.33484 L61.04398,16.26132 L60.90154,16.22338 L59.65101,20.34583 L59.79052,20.39342 L63.29723,22.64811 L66.57314,25.88593 L65.37844,28.77020 L60.77253,28.74327 L56.69861,27.85796 L56.56631,27.79295 L54.53555,31.59223 L54.66310,31.66612 L57.66256,34.56161 L60.24386,38.37632 L58.50942,40.97209 L53.99727,40.04711 L50.17434,38.38402 L50.05727,38.29446 L47.32433,41.62455 L47.43501,41.72190 L49.81196,45.14693 L51.59945,49.39192 L49.39192,51.59945 L45.14693,49.81196 L41.72190,47.43501 L41.62455,47.32433 L38.29446,50.05727 L38.38402,50.17434 L40.04711,53.99727 L40.97209,58.50942 L38.37632,60.24386 L34.56161,57.66256 L31.66612,54.66310 L31.59223,54.53555 L27.79295,56.56631 L27.85796,56.69861 L28.74327,60.77253 L28.77020,65.37844 L25.88593,66.57314 L22.64811,63.29723 L20.39342,59.79052 L20.34583,59.65101 L16.22338,60.90154 L16.26132,61.04398 L16.33484,65.21234 L15.46269,69.73500 L12.40076,70.34405 L9.86426,66.49942 L8.33701,62.62022 L8.31756,62.47410 L4.03035,62.89636 L4.03978,63.04346 L3.29867,67.14607 L1.56096,71.41168 L-1.56096,71.41168 L-3.29867,67.14607 L-4.03978,63.04346 L-4.03035,62.89636 L-8.31756,62.47410 L-8.33701,62.62022 L-9.86426,66.49942 L-12.40076,70.34405 L-15.46269,69.73500 L-16.33484,65.21234 L-16.26132,61.04398 L-16.22338,60.90154 L-20.34583,59.65101 L-20.39342,59.79052 L-22.64811,63.29723 L-25.88593,66.57314 L-28.77020,65.37844 L-28.74327,60.77253 L-27.85796,56.69861 L-27.79295,56.56631 L-31.59223,54.53555 L-31.66612,54.66310 L-34.56161,57.66256 L-38.37632,60.24386 L-40.97209,58.50942 L-40.04711,53.99727 L-38.38402,50.17434 L-38.29446,50.05727 L-41.62455,47.32433 L-41.72190,47.43501 L-45.14693,49.81196 L-49.39192,51.59945 L-51.59945,49.39192 L-49.81196,45.14693 L-47.43501,41.72190 L-47.32433,41.62455 L-50.05727,38.29446 L-50.17434,38.38402 L-53.99727,40.04711 L-58.50942,40.97209 L-60.24386,38.37632 L-57.66256,34.56161 L-54.66310,31.66612 L-54.53555,31.59223 L-56.56631,27.79295 L-56.69861,27.85796 L-60.77253,28.74327 L-65.37844,28.77020 L-66.57314,25.88593 L-63.29723,22.64811 L-59.79052,20.39342 L-59.65101,20.34583 L-60.90154,16.22338 L-61.04398,16.26132 L-65.21234,16.33484 L-69.73500,15.46269 L-70.34405,12.40076 L-66.49942,9.86426 L-62.62022,8.33701 L-62.47410,8.31756 L-62.89636,4.03035 L-63.04346,4.03978 L-67.14607,3.29867 L-71.41168,1.56096 L-71.41168,-1.56096 L-67.14607,-3.29867 L-63.04346,-4.03978 L-62.89636,-4.03035 L-62.47410,-8.31756 L-62.62022,-8.33701 L-66.49942,-9.86426 L-70.34405,-12.40076 L-69.73500,-15.46269 L-65.21234,-16.33484 L-61.04398,-16.26132 L-60.90154,-16.22338 L-59.65101,-20.34583 L-59.79052,-20.39342 L-63.29723,-22.64811 L-66.57314,-25.88593 L-65.37844,-28.77020 L-60.77253,-28.74327 L-56.69861,-27.85796 L-56.56631,-27.79295 L-54.53555,-31.59223 L-54.66310,-31.66612 L-57.66256,-34.56161 L-60.24386,-38.37632 L-58.50942,-40.97209 L-53.99727,-40.04711 L-50.17434,-38.38402 L-50.05727,-38.29446 L-47.32433,-41.62455 L-47.43501,-41.72190 L-49.81196,-45.14693 L-51.59945,-49.39192 L-49.39192,-51.59945 L-45.14693,-49.81196 L-41.72190,-47.43501 L-41.62455,-47.32433 L-38.29446,-50.05727 L-38.38402,-50.17434 L-40.04711,-53.99727 L-40.97209,-58.50942 L-38.37632,-60.24386 L-34.56161,-57.66256 L-31.66612,-54.66310 L-31.59223,-54.53555 L-27.79295,-56.56631 L-27.85796,-56.69861 L-28.74327,-60.77253 L-28.77020,-65.37844 L-25.88593,-66.57314 L-22.64811,-63.29723 L-20.39342,-59.79052 L-20.34583,-59.65101 L-16.22338,-60.90154 L-16.26132,-61.04398 L-16.33484,-65.21234 L-15.46269,-69.73500 L-12.40076,-70.34405 L-9.86426,-66.49942 L-8.33701,-62.62022 L-8.31756,-62.47410 L-4.03035,-62.89636 L-4.03978,-63.04346 L-3.29867,-67.14607 L-1.56096,-71.41168 L1.56096,-71.41168 L3.29867,-67.14607 L4.03978,-63.04346 L4.03035,-62.89636 L8.31756,-62.47410 L8.33701,-62.62022 L9.86426,-66.49942 L12.40076,-70.34405 L15.46269,-69.73500 L16.33484,-65.21234 L16.26132,-61.04398 L16.22338,-60.90154 L20.34583,-59.65101 L20.39342,-59.79052 L22.64811,-63.29723 L25.88593,-66.57314 L28.77020,-65.37844 L28.74327,-60.77253 L27.85796,-56.69861 L27.79295,-56.56631 L31.59223,-54.53555 L31.66612,-54.66310 L34.56161,-57.66256 L38.37632,-60.24386 L40.97209,-58.50942 L40.04711,-53.99727 L38.38402,-50.17434 L38.29446,-50.05727 L41.62455,-47.32433 L41.72190,-47.43501 L45.14693,-49.81196 L49.39192,-51.59945 L51.59945,-49.39192 L49.81196,-45.14693 L47.43501,-41.72190 L47.32433,-41.62455 L50.05727,-38.29446 L50.17434,-38.38402 L53.99727,-40.04711 L58.50942,-40.97209 L60.24386,-38.37632 L57.66256,-34.56161 L54.66310,-31.66612 L54.53555,-31.59223 L56.56631,-27.79295 L56.69861,-27.85796 L60.77253,-28.74327 L65.37844,-28.77020 L66.57314,-25.88593 L63.29723,-22.64811 L59.79052,-20.39342 L59.65101,-20.34583 L60.90154,-16.22338 L61.04398,-16.26132 L65.21234,-16.33484 L69.73500,-15.46269 L70.34405,-12.40076 L66.49942,-9.86426 L62.62022,-8.33701 L62.47410,-8.31756z" />
      <path name="hourglass" d="M-20,-40 h40 L-20,40 h40 z" />
    </g>
  </g>
</svg>
