<svg xmlns="http://www.w3.org/2000/svg" viewBox="0 0 900 400" width="900" height="400">
  <defs>
    <filter id="fil" x="0" y="0" width="900" height="400">
      <feGaussianBlur stdDeviation="5"/>
    </filter>
  </defs>
  <g id="bg-space">
    <rect width="900" height="400" y="0" x="0" fill="black"/>
  </g>
  <g id="earth" transform="translate(400, 100)">
    <circle id="earth" fill="#3e70b7" r="40" cy="0" cx="0" />
    <g id="clouds" fill="#AAA" filter="url(#fil)">
      <rect x="0" y="20" width="30" height="4" />
      <rect x="-25" y="-30" width="30" height="5" />
      <rect x="-35" y="-20" width="40" height="8" />
    </g>
  </g>
  <g id="moonface" fill="#666">
    <path d="m -40,300 c 40,-20 120,-60 160,-50 40,10 42,-40 140,22 0,0 -48,21 -73,24 -30,3 -60,-9 -89,-9 C 52,287 -40,300 -40,300 Z"/>
    <path d="m 245,250 c 63,31 135,67 188,68 68,-33 198,-45 198,-45 0,0 -70,-24 -135,-35 -43,25 -100,10 -131,-14 -38,10 -76,20 -119,26 z"/>
    <path d="m 600,241 c 0,0 70,-16 105,-16 38,0 74,19 112,21 32,2 129,-5 129,-5 0,0 -81,42 -106,54 -90,-29 -190,-54 -239,-54 z"/>
    <path d="M -35,324 C 72,289 160,310 178,317 c 20,6.5 138,69 226,72 13,-28 244,-134 300,-109 11,24 82,35 125,31 39,-3 108,-46 108,-46 l -4,167 -985,-17 z"/>
  </g>
</svg>
